/* XPM */
static char *result[] = {
/* columns rows colors chars-per-pixel */
"64 64 8 1 ",
"  c #EB3131",
". c #8F553F",
"X c #EE5858",
"o c #CA8368",
"O c #D5947B",
"+ c #EEBDAB",
"@ c #EAB1B1",
"# c white",
/* pixels */
"@@@@@@@@@@@@@@@@@@@@@@@@@@@@@@@@@@@@@@@@@@@@@@@@@@@@@@@@@@@@@@@@",
"@@@@@@@@@@@@@@@@@@@@@@@@@@@@@@@@@@@@@@@@@@@@@@@@@@@@@@@@@@@@@@@@",
"@@@@@@@@@@@@@@@@@@@@@@@@@@@@@@@@@@@@@@@@@@@@@@@@@@@@@@@@@@@@@@@@",
"@@@@@@@@@@@@@@@@@@@@@@@@@@@@@@@@@@@@@@@@@@@@@@@@@@@@@@@@@@@@@@@@",
"@@@@@@@  @@@@@@@@@@@@@@@@@@@@@@@@@@@@@@@@@@@@@@@@@@@@@@@@@@@@@@@",
"         @@@@         @@@@@@@@@@@@@@@@@@@@@@@@@@@@   @@@        ",
"#########     XX########## #####      @@@@    @@@ XXX   XXX#####",
"@@@@@@@@#############@@@@###@@@########   ......###########@@@@@",
"@@@@@@@@@@@@@@@@@@@@@@@@@@@@@@@@@@@@@@#...ooOOoO.....@@@@@@@@@@@",
"@@@@@@@@@@@@@@@@@@@@@@@@@@@@@@@@@@@@@@.oooOOooOOOOooo..@@@@@@@@@",
"@@@@@@@@@@@@@@@@@@@@@@@@@@@@@@@@@@@@@.OoooooOooOoOOOoOo.@@@@@@@@",
"@@@@@@@@@@@@@@@@@@@@@@@@@@@@@@@@@@@@.ooOOOOooOOoOooOoOoo..@@@@@@",
"@@@@@@@@...@@@@@@@@@@@@@@@@@@@@@@@@OOooooooOOOOOOOoOoOooOo.@@@@@",
"        .+.@....@@@@@@@@@    @@@@ .ooOOOoooooO+++OOOooOoOo..@@@ ",
"#######.++..OOO.@        ##XX  ###.oooooOOOOOoO+++OoOoOoOooO   X",
"@@@@@@.+++.OOO..##########@####@@@.OOOOOOOOoOO+++++OOOoOOoOo.###",
"@@@@@.++++.OOO.@@@#@@@@@@@@@@@@@@@.ooooooOOOO++++++++OOOOoOo.@@@",
"@@@@@.++++.OOO.@@@@@@@@@@@@@@@@@@@.OOOOOOO+++++++++++++++OOo.@@@",
"@@@@.o+++.OOOO.@@@@@@@@@@@@@@@@@@@.+++++++++.+++....+++++OOo.@@@",
"@@@@.o+++.OOO..@@@@@@@@@@@@@@@@@@@.+++++++++.O++.OOO.++++OOO.@@@",
"@@@.oo+++.OOO.@@@  @@@@@@......   .+++++++...O++++.O.+++++OO.@@@",
"@@@.o+++.OOOO.   X........OOOO..##.+++.++..OOO++++...++++++O.@@@",
"   .o+++.OOOO.....+++++++++++OO.@@@..+.++++++++++++++++++++O.@@@",
"###.o++++......+++++++++++++++O.@@@.OO..+++++++++++++++++++O.  #",
"@@@.o+++++++++++++++++++++++++O.@@@..OO.+++++++++++++++++++O.###",
"@@@.o+++++++++++++++++++++++++O.@@@@@.O.++..++++++++++++++OO.@@@",
"@@@.o++++++++++++++...++++++++O.@@@@@@..++.+++++++++++++++O.@@@@",
"@@@.o+++++++.......@@.++++++++O.@@...@@...+++++..++++++++OO.@@@@",
"@@@.oooo.....@@@@@@@.+++++++++.@@@.o.@@@@..+...++++++++++O..@@@@",
"@@@@@...@@@@@@@@@@@.+++++++++..@@.oo.@@@@@@..++++++++++++O..@@@@",
"@@@@@@@@@@@@@    @.+++++++++..@@@.oo.@@@@@@@@.......+++++OO.@   ",
"         @    #X .++++++++++.@@@.oo+.@@@@@  @@..OOO+++++++O. ###",
"#######XX  ###@#.+++++++++..  @@.o++.     XX   .OO+++++++OO.##@@",
"@@@@@@@#####@@@@.+++++++++.#####.+++.##########..O+++++++O.@@@@@",
"@@@@@@@@@@@@@@@..++++++++..@@@@@.+++.@@@@@@@@@@..O+++++++O.@@@@@",
"@@@@@@@@@@@@@@@.O++++++++.@@@@@@.+++.@@@@@@@@...OO+++++++O.@@@@@",
"@@@@@@@@@@@@@@@.O++++++++.@@@...++++.@........++OOOOO++++O.@@@@@",
"@@@@@@@@@@@@@@.O++++++++.@@...O.++++...+++++++++....OO++O.@@@@@@",
"@@@@@@@@@@@@@@.O++++++++...OOOO.++++..++++++++..++++..++O.@@@@@@",
"@@@@@@@@@@    .O+++++++++.OOOOO.+++++..++++++..++++++.++O.@   @@",
"           ##.O++++++++++.OOOOO.+++++++......++++++++.++O. XXX  ",
"############@.O++++++++++..OO+O.++++++++++++++++++++++++O.######",
"@@@@@@@@@@@@@.O+++++++++++.O++O.++++++++++++++++++++++++O.@@@@@@",
"@@@@@@@@@@@@.O++++++++++++OOO+O..++++++++++++++++++++++O.@@@@@@@",
"@@@@@@@@@@@@.O+++++++++++++O++OOO....++++++++++++++++++O.@@@@@@@",
"@@@@@@@@@@@@.OO+++++++++++++++++OOOO....++++++...++++++O.@@@@@@@",
"@@@@@@@@@@@@@.O+++++++++++++++++++++OOOO.......OO++++++O.@@@@@@@",
"@@@@@@@@@@@@@.OO++++++++++++++++++++++++OOOOOOOO++++++OO.@@@@@@@",
"@@@@@@@@@@@@ ..O++++++++++++++++++++++++++++++++++++++O.@@@@@@@@",
"    @@@@@@@ XX.O++++++++++++++++++++++++++++++++++++++O.        ",
"###X       ####.OOOO++++++++++++++++++++++++++++++++++O.########",
"@@@#########@@@@.OOOO++++++++++++++++++++++++++++++++O.@@@@@@@@@",
"@@@@@@@@@@@@@@@@@...O+++++++++++++++++++++++++++++++O..@@@@@@@@@",
"@@@@@@@@@@@@@@@@@@@@.OOOOOO+++++++++++++++++++++++OOO.@@@@@@@@@@",
"@@@@@@@@@@@@@@@@@@@@@...OOOO++++++++++++++++++OO+OO..@@@@@@@@@@@",
"@@@@@@@@@@@@@@@@@@@@@@@@....OOOO++++++++++++++OOOO.@@@@@@@@@@@@@",
"@  @@@@@@@@@@@@@@@@@@@@@@@@@....OOOOOOOOOOOOOOO...@@@@@@@@@@@@@@",
" X#                 @@@@@@@@@@@@...............@@@@@    @@@@@@@@",
"#################XX   @@@@@@@@@@@@@ @@@@@@@@@@@@@@  XXXX      ##",
"@@@@@@@@@@@@@@@@######             X  @@        ##############@@",
"@@@@@@@@@@@@@@@@@@@@@################## #########@@@@@@@@@@@@@@@",
"@@@@@@@@@@@@@@@@@@@@@@@@@@@@@@@@@@@@@@###@@@@@@@@@@@@@@@@@@@@@@@",
"@@@@@@@@@@@@@@@@@@@@@@@@@@@@@@@@@@@@@@@@@@@@@@@@@@@@@@@@@@@@@@@@",
"@@@@@@@@@@@@@@@@@@@@@@@@@@@@@@@@@@@@@@@@@@@@@@@@@@@@@@@@@@@@@@@@"
};
