/* XPM */
static char *result[] = {
/* columns rows colors chars-per-pixel */
"64 64 190 2 ",
"   c black",
".  c #0A0A14",
"X  c #2A0303",
"o  c #2D1F1F",
"O  c #141420",
"+  c #16133A",
"@  c #362728",
"#  c #2E2438",
"$  c #35283A",
"%  c #561B1B",
"&  c #4B0D2C",
"*  c #4A373A",
"=  c #13124A",
"-  c #2C2B43",
";  c #27274A",
":  c #32324C",
">  c #292956",
",  c #393856",
"<  c #32315D",
"1  c #1A1978",
"2  c #2D2D64",
"3  c #2F2E69",
"4  c #302F6C",
"5  c #393966",
"6  c #3D3C64",
"7  c #33336D",
"8  c #252477",
"9  c #363577",
"0  c #35357C",
"q  c #4D1549",
"w  c #521F46",
"e  c #53204D",
"r  c #473C59",
"t  c #513D59",
"y  c #403F64",
"u  c #46415C",
"i  c #654A4A",
"p  c #705455",
"a  c #765859",
"s  c #45456D",
"d  c #444377",
"f  c #4A4A72",
"g  c #4C4B7C",
"h  c #504F79",
"j  c #585877",
"k  c #54547C",
"l  c #624962",
"z  c #6F6F70",
"x  c #881818",
"c  c #A82020",
"v  c #B82424",
"b  c #CB2929",
"n  c #D82C2C",
"m  c #EB3131",
"M  c #886667",
"N  c #896767",
"B  c #916D6D",
"V  c #856470",
"C  c #9B7474",
"Z  c #A77D7D",
"A  c #D14C4C",
"S  c #DB5050",
"D  c #EE5858",
"F  c #262585",
"G  c #2B2A84",
"H  c #3C3B84",
"J  c #3C3B8A",
"K  c #2C2B96",
"L  c #292898",
"P  c #383795",
"I  c #2F2EAB",
"U  c #3635AE",
"Y  c #3735B5",
"T  c #3A38BC",
"R  c #403587",
"E  c #403F94",
"W  c #443DB4",
"Q  c #454483",
"!  c #49488A",
"~  c #575782",
"^  c #595882",
"/  c #56568C",
"(  c #5E5D8A",
")  c #424294",
"_  c #4B4A91",
"`  c #45459B",
"'  c #4C449D",
"]  c #4E4E9C",
"[  c #585797",
"{  c #5C5B93",
"}  c #675A8B",
"|  c #605F93",
" . c #785D96",
".. c #7D6983",
"X. c #646492",
"o. c #64649A",
"O. c #686799",
"+. c #686899",
"@. c #4747A0",
"#. c #4847A0",
"$. c #4C4BA3",
"%. c #4E4DAA",
"&. c #5554A6",
"*. c #4940B5",
"=. c #504FB0",
"-. c #5352B4",
";. c #5655BB",
":. c #5857BE",
">. c #5958BE",
",. c #6C6CA8",
"<. c #7574AB",
"1. c #6564BC",
"2. c #7473B4",
"3. c #7D7CB5",
"4. c #7F7EB9",
"5. c #3C3BC4",
"6. c #3F3DCA",
"7. c #4844CE",
"8. c #5B5AC4",
"9. c #5E5DC9",
"0. c #4341D6",
"q. c #4644DC",
"w. c #5A58D4",
"e. c #5755D8",
"r. c #5756DE",
"t. c #605FC5",
"y. c #605FCA",
"u. c #6463CB",
"i. c #6867CC",
"p. c #6C6BCD",
"a. c #706FCF",
"s. c #7171C6",
"d. c #7171CE",
"f. c #7A79CE",
"g. c #7574D2",
"h. c #7877D3",
"j. c #7B7AD4",
"k. c #4746E3",
"l. c #4946E4",
"z. c #4B4AE4",
"x. c #4D4BEB",
"c. c #504EE9",
"v. c #5351E4",
"b. c #5250E8",
"n. c #4E4CF4",
"m. c #96718D",
"M. c #967190",
"N. c #A87F80",
"B. c #8F70BC",
"V. c #807FB9",
"C. c #807FD5",
"Z. c #959595",
"A. c #AD8287",
"S. c #B18585",
"D. c #B68989",
"F. c #B88A8A",
"G. c #8382BE",
"H. c #AAAAAA",
"J. c #BABABA",
"K. c #C39393",
"L. c #CB9A9A",
"P. c #D09D9D",
"I. c #D7A3A3",
"U. c #DFA8A8",
"Y. c #E4ACAC",
"T. c #E8AFAF",
"R. c #EAB1B1",
"E. c #8585C2",
"W. c #8886C4",
"Q. c #8888C6",
"!. c #8382CE",
"~. c #8B8ACB",
"^. c #8382D6",
"/. c #8E8DD1",
"(. c #8584D8",
"). c #8887D9",
"_. c #8B8ADA",
"`. c #908FD2",
"'. c #908FDC",
"]. c #9291D5",
"[. c #9493DB",
"{. c #9897DE",
"}. c #9796E1",
"|. c #9B9AE2",
" X c #C6C6C6",
".X c LightGray",
"XX c #E2E2E2",
"oX c gray92",
"OX c #F6F6F6",
"+X c #FFFFFF",
/* pixels */
"R.R.R.R.R.R.R.R.R.R.R.R.R.R.R.R.R.R.R.R.R.R.R.R.R.R.R.R.R.R.R.R.R.R.R.R.R.R.R.R.R.R.R.R.R.R.R.R.R.R.R.R.R.R.R.R.R.R.R.R.R.R.R.R.",
"R.R.R.R.R.R.R.R.R.R.R.R.R.R.R.R.R.R.R.R.R.R.R.R.R.R.R.R.R.R.R.R.R.R.R.R.R.R.R.R.R.R.R.R.R.R.R.R.R.R.R.R.R.R.R.R.R.R.R.R.R.R.R.R.",
"R.R.R.R.R.R.R.R.R.R.R.R.R.R.R.R.R.R.R.R.R.R.R.R.R.R.R.R.R.R.R.R.R.R.R.R.R.R.R.R.R.R.R.R.R.R.R.R.R.R.R.R.R.R.R.R.R.R.R.R.R.R.R.R.",
"R.R.R.R.R.R.R.R.R.R.R.R.R.R.R.R.R.R.R.R.R.R.R.R.R.R.R.R.R.R.R.R.R.R.R.R.R.R.R.R.R.R.R.R.R.R.R.R.R.R.R.R.R.R.R.R.R.R.R.R.R.R.R.R.",
"R.R.R.R.R.R.R.m m R.R.R.R.R.R.R.R.R.R.R.R.R.R.R.R.R.R.R.R.R.R.R.R.R.R.R.R.R.R.R.R.R.R.R.R.R.R.R.R.R.R.R.R.R.R.R.R.R.R.R.R.R.R.R.",
"m m m m m m m m m R.R.R.R.m m m m m m m m m R.R.R.R.R.R.R.R.R.R.R.R.R.R.R.R.R.R.R.R.R.R.R.R.R.R.R.R.m m m R.R.R.m m m m m m m m ",
"+X+X+X+X+X+X+X+X+Xm m m m m D D +X+X+X+X+X+X+X+X+X+Xm +X+X+X+X+Xm m m m m m R.R.R.R.m m m m R.R.R.m D D D m m m D D D +X+X+X+X+X",
"R.R.R.R.R.R.R.R.+X+X+X+X+X+X+X+X+X+X+X+X+XR.R.R.R.oXoXoXI.I.I.oXoXoXoXoXoXOX+Xm m m D +X+X+X+X+X+X+X+X+X+X+X+X+X+X+X+XR.R.R.R.R.",
"R.R.R.R.R.R.R.R.R.R.R.R.R.R.R.R.R.R.R.R.R.R.I.F.D.- +.+.O.O.O.+.+.+.+.o.~ N  X.X+X+X+XR.R.R.R.R.R.R.R.R.R.R.R.R.R.R.R.R.R.R.R.R.",
"R.R.R.R.R.R.R.R.R.R.R.R.R.R.R.R.R.R.R.R.R.B  .F O Q._.g.g.h.h.h.g.g.h.{.{.k T 7.B.P.R.R.R.R.R.R.R.R.R.R.R.R.R.R.R.R.R.R.R.R.R.R.",
"R.R.R.R.R.R.R.R.R.R.R.R.R.R.R.R.R.R.Y.A.r k.x.K Q.i.y.t.9.9.9.9.9.9.9.u.f.[.! w.x.' l Y.T.R.R.R.R.R.R.R.R.R.R.R.R.R.R.R.R.R.R.R.",
"R.R.R.R.R.R.R.R.R.R.R.R.R.R.R.R.R.L.+ 5.c.v.9.) !.9.9.9.9.9.9.9.9.9.9.9.9.9.9.9.w.v.x.F M.Y.R.R.R.R.R.R.R.R.R.R.R.R.R.R.R.R.R.R.",
"R.R.R.R.R.R.R.R.R.R.R.R.R.R.R.R.K.*.6.b.9.9.9.9.9.9.9.9.9.9.9.9.u.9.9.9.9.9.9.9.9.8.e.I 1 B S.R.R.R.R.R.R.R.R.R.R.R.R.R.R.R.R.R.",
"m m m m m m m m m m m R.R.R.R.K.@ 8 P y.9.9.9.9.9.9.9.9.9.9.9.0 2 2 2 8.8.9.9.9.9.9.y.~.~.~.$ c m m m R.R.m m m m R.R.R.R.R.R.m ",
"+X+X+X+X+X+X+X+X+X+X+X+Xm Y.* u V.[.(.9.:.:.-.:.:.:.9.9.9.9.) ~.]._.}.k Q 8.8.9.9.9.9.y.y.).`.-  X+X+Xm +X+X+XD m m m m m m m D ",
"R.R.R.R.R.R.R.R.R.R.R.+X+Xz ,.}.).u.9.-.{ X.X.X.Q ) 9.9.9.9.9.C.9.9.j._.].[ @.9.9.9.9.9.9.9.)./., S.+X+X+XR.+X+X+X+X+X+X+X+X+X+X",
"R.R.R.R.R.R.R.R.R.R.R.R.R.a [.p.9.9.:.o.[.j.h.h.u.9.9.9.9.9.9.9.9.9.9.9.^./.4.Q 9.9.9.9.9.9.y.(.~.r R.R.R.R.R.R.R.R.R.R.R.R.R.R.",
"R.R.R.R.R.R.R.R.R.R.R.R.T.p ].9.9.8.g {.g.9.9.9.9.9.9.9.9.9.9.9.9.9.9.9.u.i._.Q.J y.9.9.9.9.9.9._., V R.R.R.R.R.R.R.R.R.R.R.R.R.",
"R.R.R.R.R.R.R.R.R.R.R.R.Z . '.9.9.-.O.^.9.9.9.9.9.9.9.9.9.9.9.9.9.9.9.9.9.9.y.]._ 8.9.9.9.9.9.9._.y 0.Z R.R.R.R.R.R.R.R.R.R.R.R.",
"R.R.R.R.R.R.R.R.R.R.R.U.a o.j.9.9.< [.d.9.9.9.9.9.9.9.9.9.9.9.9.9.9.9.9.9.9.9.(.3.$.9.9.9.9.9.9.g.< k. .Y.R.R.R.R.R.R.R.R.R.R.R.",
"R.R.R.R.R.R.R.R.R.R.R.L.  1.9.9.9.< '.9.9.9.9.9.9.9.9.9.9.9.9.9.9.9.9.9.9.9.9.y.&.$.9.9.9.9.9.9.9.;.e.l.} Y.R.R.R.R.R.R.R.R.R.R.",
"R.R.R.R.R.R.R.R.R.R.I.R U ;.9.9.H /._.9.9.9.9.9.9.:.:.:.8.9.9.9.9.9.9.9.9.9.9.9.$.&.9.9.y.8.8.9.9.9.9.r.K I.R.R.R.R.R.R.R.R.R.R.",
"m m m m m m m m m m & Y r.9.9.y.9 /.9.9.9.9.9.9.%.( ( ( H 9.y.y.9.9.9.9.9.9.9.9.9.9.9.9.9.[ ( $.:.9.9.w.c.q R.R.R.R.R.R.R.R.R.R.",
"+X+X+X+X+X+XD D D D e x.9.9.9.9.9 s.9.9.9.9.y.` 3.{.j.j.9.:.0 0 0 0 H 8.9.9.9.9.9.9.9.9.9.g.}.3.[ 8.9.9.c.w m m m m m m m m m +X",
"R.R.R.R.R.R.+X+X+X+Xj v.9.9.9.9.8.8.9.9.9.9.%.<.}.i.9.9.:./ /././.`.k 8.8.9.9.9.9.9.9.9.9.9.i.j.[.d t.$.2 7.H.+X+X+X+X+X+X+X+X+X",
"R.R.R.R.R.R.R.R.R.N k.v.t.9.9.9.9.9.9.9.9.9.] G.p.9.9.9.; +.j.9.y.9.9.9.9.9.9.9.9.9.9.9.9.9.9.9.).( ;.h.}.h a Y.R.R.R.R.R.R.R.R.",
"R.R.R.R.R.R.R.R.I.i z.9.9.9.9.9.9.9.9.9.9.:.( '.u.9.9.9.] (.d.9.9.9.9.9.9.9.9.8.J :.9.9.9.9.9.9.g.{.2 y.j.{.^ F.R.R.R.R.R.R.R.R.",
"R.R.R.R.R.R.R.R.D.U z.9.9.9.9.9.9.9.9.9.t.:.( j.9.9.9.9.9.9.9.9.9.9.9.9.9.9.9.u.W.{ >.9.9.9.9.9.8.'.+ #.y.g.G.F.R.R.R.R.R.R.R.R.",
"R.R.R.R.R.R.R.R.F.5.G u.9.9.9.9.9.9.9.9.9.:.| h.9.9.9.9.9.9.9.9.9.9.9.9.9.>.8.u.j.{.g 8.9.9.9.9.y.'.W.J 9.u.V.F.R.R.R.R.R.R.R.R.",
"R.R.R.R.R.R.R.Y.C s 8.9.9.9.9.9.9.9.9.9.9.9.9.9.9.9.9.-.d.9.9.9.9.9.9.9.>., ) 8.9.j.[.4 9.9.9.9.9.y.~.J y.u.E.C Y.R.R.R.R.R.R.R.",
"R.R.R.R.R.R.R.I.  E.i.9.9.9.9.=.-.9.9.9.9.9.9.9.9.9.9.4 ].9.9.9.9.9.9.9.f.~., 8.9.9.'.4 9.9.9.9.9.C.~.H y.u.].f I.R.R.R.R.m m m ",
"m m m m m m m n } f.9.9.t.9.:.| d.9.9.9.9.9.9.9.9.9.9.4 '.9.9.9.9.9.9.9.y._.f 9.9.9.`.3 y.9.9.9.9.'.g 8.9.y.C.O.n m m m m +X+X+X",
"+X+X+X+X+X+X+XS o.g.9.9.9.9.;.X.h.9.9.9.9.9.9.9.9.9.9.3 [._.9.9.9.9.9.9.j.{.g 9.9.9.'.4 y.9.8.9.9.'.2 y.9.9.g.+.oX+X+X+X+X+XR.R.",
"R.R.R.R.R.R.R.oX+.f.9.9.9.9.;.X.h.9.9.9.9.9.9.9.9.9.9.@.<.2.9.9.9.9.9.j.].{ :.9.t.9.'.2 y.9.9.9.a.[.2 y.9.9.g.+.I.R.R.R.R.R.R.R.",
"R.R.R.R.R.R.R.I.+.g.9.9.9.9.7 X.j.9.9.9.9.9.9.` ^.9.9.9.%.-.9.9.9.9.9.( / :.9.9.9.j.[.3 y.9.9.9.).o.-.9.9.9.g.O.I.R.R.R.R.R.R.R.",
"R.R.R.R.R.R.R.I.+.g.9.9.9.9.y [.g.9.9.9.9.9.9.0 /.u.9.9.9.9.9.9.9.9.9.>.8.9.9.u.h.{.g 8.9.9.9.h.{.s 9.9.9.i.{.X.I.R.R.R.R.R.R.R.",
"R.R.R.R.R.R.R.I.~ f.u.9.9.8.6 '.u.9.9.9.9.9.9.` V.[.9.9.9.9.9.9.9.9.9.9.9.9.a.{.G.( 8.9.9.9.i.[.{ 8.9.9.9.E.,.  I.R.R.R.R.R.R.R.",
"R.R.R.R.R.R.R.Y.N G.(.9.9.9.] G.h.y.9.9.9.9.9.9.> }.a.9.9.9.9.9.9.9.9.9.9.9.,.o.E ;.9.9.9.9.u.k #.8.9.9.8.= L M Y.R.R.R.R.R.R.R.",
"R.R.R.R.R.R.R.R.F., ].9.9.9.>.X.h.9.9.9.9.9.9.9.-.X.^.9.9.9.9.9.9.9.9.9.9.9.;.;.9.9.9.9.9.9.9.-.8.9.9.9.9.;.6.D.R.R.R.R.R.R.R.R.",
"R.R.R.R.R.R.R.R.K.o 7 !.8.9.>.{ {.i.9.9.9.9.9.9.9.g `.{.p.i.9.9.9.9.i.9.9.9.8.9.9.9.9.9.9.9.9.9.9.9.9.9.9.x.5.v m R.R.m m m R.R.",
"m m m m m m m m m x k.K %.9.9.` G.j.9.9.9.9.9.9.9.:.0 ,.4.[.j.j.j.j.}.&.9.9.9.9.t.9.9.9.9.9.9.9.9.9.9.8.w.z.% XX+Xm m D D D m m ",
"+X+X+X+X+X+X+X+X+XXX&.v.9.9.9.>.{ ].^.9.9.9.9.9.9.9.9.=.$.( ( ( ( ( ( %.9.9.9.9.9.9.9.9.9.9.9.9.9.9.9.w.x.K Z.R.+X+X+X+X+X+X+X+X",
"R.R.R.R.R.R.R.R.R.R.t x.e.9.9.9.8.g [.h.8.9.9.9.9.9.9.9.9.:.:.:.:.:.:.9.9.9.9.9.9.9.9.9.9.9.9.9.9.9.8.v.K z Y.R.R.R.R.R.R.R.R.R.",
"R.R.R.R.R.R.R.R.R.R.M F v.9.9.9.9.8.2 $.9.9.9.9.9.9.9.9.9.9.9.9.9.9.9.9.9.9.9.9.9.9.9.9.9.9.9.9.9.p.8 n.F U.R.R.R.R.R.R.R.R.R.R.",
"R.R.R.R.R.R.R.R.R.R.T.m.0.v.9.9.9.9.y.9.9.9.9.9.9.9.9.9.9.9.9.9.9.9.9.9.9.9.9.9.9.8.j.$.9.9.9.9.9.'.8 0.m.Y.R.R.R.R.R.R.R.R.R.R.",
"R.R.R.R.R.R.R.R.R.R.R.L.= k.9.9.9.9.9.9.9.9.9.9.9.9.9.9.9.9.9.9.9.9.9.9.9.9.9.9.9.9.].3 9.9.9.9.9.'.= m.Y.R.R.R.R.R.R.R.R.R.R.R.",
"R.R.R.R.R.R.R.R.R.R.R.R.A.7.q.X.h.9.9.9.9.9.9.9.9.9.9.H ;.i.i.u.9.9.9.9.9.9.9.9.9.).`.0 y.9.9.9.u.[.o S.R.R.R.R.R.R.R.R.R.R.R.R.",
"R.R.R.R.R.R.R.R.R.R.R.R.R.N.W X.h.9.9.9.9.9.9.9.9.9.9.9.: ~.|.i.9.9.9.9.9.9.9.9.i.'., 9.9.9.9.u.'.G.Z R.R.R.R.R.R.R.R.R.R.R.R.R.",
"R.R.R.R.R.R.R.R.R.R.R.R.m m X X._.u.9.9.9.9.9.9.9.9.9.9.$.] Q._.C.9.9.9.9.9.9.u.].3.$.9.9.^.(.}.3.$ R.R.R.R.R.R.R.R.R.R.R.R.R.R.",
"m m m m R.R.R.R.R.R.R.m D D A $ r /.u.9.9.9.9.9.9.9.9.9.9.8._ s [.[.d.y.u.t._.[.G.$.9.9.9._.d 6 # b m m m m m m m m m m m m m m ",
"+X+X+XD m m m m m m m +X+X+X+X+XJ.W.[.p.p.9.9.9.9.9.9.9.9.9.9.9.4 o.~.~.~.~.~.7 ) 9.9.9.9.P l.;.b D +X+X+X+X+X+X+X+X+X+X+X+X+X+X",
"R.R.R.+X+X+X+X+X+X+X+X+XR.R.R.R.+XJ.<.<.[.^.g.9.9.y.9.9.9.9.9.9.9.-.J J J J J 9.9.f.%.9.c.6.W .X+X+XR.R.R.R.R.R.R.R.R.R.R.R.R.R.",
"R.R.R.R.R.R.R.R.R.R.R.R.R.R.R.R.R.R.L.L...k g 3 7 J u.9.9.9.9.9.9.9.9.9.y.9.9.9.a.|.5 c.5.+ L.R.R.R.R.R.R.R.R.R.R.R.R.R.R.R.R.R.",
"R.R.R.R.R.R.R.R.R.R.R.R.R.R.R.R.R.R.R.R.Y.I.* *.q.z.w.9.9.9.9.w.Q ].].[.u.i.u.d.{.( 6.t A.Y.R.R.R.R.R.R.R.R.R.R.R.R.R.R.R.R.R.R.",
"R.R.R.R.R.R.R.R.R.R.R.R.R.R.R.R.R.R.R.R.R.R.R.D.M 6.6.6.6.6.6.6.T     4.~.|.|.E.O.p B R.R.R.R.R.R.R.R.R.R.R.R.R.R.R.R.R.R.R.R.R.",
"R.R.R.R.R.R.R.R.R.R.R.R.R.R.R.R.R.R.R.R.R.R.R.R.R.F.F.F.D.D.D.D.F.F.F.o : O.o.  p U.R.R.R.R.R.R.R.R.R.R.R.R.R.R.R.R.R.R.R.R.R.R.",
"R.m m R.R.R.R.R.R.R.R.R.R.R.R.R.R.R.R.R.R.R.R.R.R.R.R.R.R.R.R.R.R.R.R.I.I.I.I.I.U.R.R.R.R.R.R.R.R.R.R.R.R.R.R.R.R.R.R.R.R.R.R.R.",
"m D +Xm m m m m m m m m m m m m m m m m R.R.R.R.R.R.R.R.R.R.R.R.R.R.R.R.R.R.R.R.R.R.R.R.R.R.R.R.R.R.R.R.m m m m R.R.R.R.R.R.R.R.",
"+X+X+X+X+X+X+X+X+X+X+X+X+X+X+X+X+XD D m m m R.R.R.R.R.R.R.R.R.R.R.R.R.m R.R.R.R.R.R.R.R.R.R.R.R.R.R.m m D D D D m m m m m m +X+X",
"R.R.R.R.R.R.R.R.R.R.R.R.R.R.R.R.+X+X+X+X+X+Xm m m m m m m m m m m m m D m m R.R.m m m m m m m m +X+X+X+X+X+X+X+X+X+X+X+X+X+XR.R.",
"R.R.R.R.R.R.R.R.R.R.R.R.R.R.R.R.R.R.R.R.R.+X+X+X+X+X+X+X+X+X+X+X+X+X+X+X+X+X+Xm +X+X+X+X+X+X+X+X+XR.R.R.R.R.R.R.R.R.R.R.R.R.R.R.",
"R.R.R.R.R.R.R.R.R.R.R.R.R.R.R.R.R.R.R.R.R.R.R.R.R.R.R.R.R.R.R.R.R.R.R.R.R.R.+X+X+XR.R.R.R.R.R.R.R.R.R.R.R.R.R.R.R.R.R.R.R.R.R.R.",
"R.R.R.R.R.R.R.R.R.R.R.R.R.R.R.R.R.R.R.R.R.R.R.R.R.R.R.R.R.R.R.R.R.R.R.R.R.R.R.R.R.R.R.R.R.R.R.R.R.R.R.R.R.R.R.R.R.R.R.R.R.R.R.R.",
"R.R.R.R.R.R.R.R.R.R.R.R.R.R.R.R.R.R.R.R.R.R.R.R.R.R.R.R.R.R.R.R.R.R.R.R.R.R.R.R.R.R.R.R.R.R.R.R.R.R.R.R.R.R.R.R.R.R.R.R.R.R.R.R."
};
