/* XPM */
static char *result[] = {
/* columns rows colors chars-per-pixel */
"64 64 7 1 ",
"  c black",
". c #EB3131",
"X c #EE5858",
"o c #7ECAD3",
"O c #EAB1B1",
"+ c #A2DDE4",
"@ c white",
/* pixels */
"OOOOOOOOOOOOOOOOOOOOOOOOOOOOOOOOOOOOOOOOOOOOOOOOOOOOOOOOOOOOOOOO",
"OOOOOOOOOOOOOOOOOOOOOOOOOOOOOOOOOOOOOOOOOOOOOOOOOOOOOOOOOOOOOOOO",
"OOOOOOOOOOOOOOOOOOOOOOOOOOOOOOOOOOOOOOOOOOOOOOOOOOOOOOOOOOOOOOOO",
"OOOOOOOOOOOOOOOOOOOOOOOOOOOOOOOOOOOOOOOOOOOOOOOOOOOOOOOOOOOOOOOO",
"OOOOOOO..OOOOOOOOOOOOOOOOOOOOOOOOOOOOOOOOOOOOOOOOOOOOOOOOOOOOOOO",
".........OOOO.........OOOOOOOOOOOOOOOOOOOOOOOOOOOO...OOO........",
"@@@@@@@@@.....XX@@@@@@@@@@.@@@@@......OOOO....OOO.XXX...XXX@@@@@",
"OOOOOOOO@@@@@@@@@@@@@OOOO@@@OOO@@@@@@@@...X@@@@@@@@@@@@@@@@OOOOO",
"OOOOOOOOOOOOOOOOOOOOOOOOOOOOOOOOOOOOOO@@@@@OOOOOOOOOOOOOOOOOOOOO",
"OOOOOOOOOOOOOOOOOOOOOOOOOOOOOOOOOOOOOOOOOOOOOOOOOOOOOOOOOOOOOOOO",
"OOOOOOOOOOOOOOOOOOOOOOOOOOOOOOOOOOOOOOOOOOOOOOOOOOOOOOOOOOOOOOOO",
"OOOOOOOOOOOOOOOOOOOOOOOOOOOOOOOOOOOOOOOOOOOOOOOOOOOOOOOOOOOOOOOO",
"OOOOOOOOOOOOOOOOOOOOOOOOOOOOOOOOOOOOOOOOOOOOOOOOOOOOOOOOOOOOOOOO",
"...........OOOOOOOOOOOOOO....OOOO......OOO.........OO....OOOOOO.",
"@@@@@@@@@@@@.OOOO........@@XX..@@@@@@@.....@@@@@@@@.@@@X.......X",
"OOOOOOOOOOO@@@@@@@@@@@@@@@O@@@@OOOOOOO@@@@@@OOOOOO@@@O@@@@@@@@@@",
"OOOOOOOOOOOOOOOOOO@OOOOOOOOOOOOOOOOOOOOOOOOOOOOOOOOOOOOOOOOOOOOO",
"OOOOOOOOOOOOOOOOOOOOOOOOOOOOOOOOOOOOOOOOOOOOOOOOOOOOOOOOOOOOOOOO",
"OOOOOOOOOOOOOOOOOOOOOOOOOOOOOOOOOOOOOOOOOOOOOOOOOOOOOOOOOOOOOOOO",
"OOOOOOOOOOOOOOOOOOOOOOOOOOOOOOOOOOOOOOOOOOOOOOOOOOOOOOOOOOOOOOOO",
"OOOOOOOOOOOOOOOOO..OOOOOOOOOOOO...OOOOOOOOOOOOOOOOOOOOOOOOOOOOOO",
"OOOOOOOOOOOOO....X...OOOOOOO...@@@@@........OOOOOOOOOOOOOOOOOOOO",
".............X@@@@@@@@@@@....@@OOOO@@@@@@@X...OOOOOO..OOOOOOOOOO",
"@@@@@@XXXXXXX@@OOOOOOOOO@@@@@OOOOOOOOOOOO@@@@X......XX.........@",
"OOOOOO@@@@@@@@OOOOOOOOOOOOOOOOOOOOOOOOOOOOOO@@@@@       @@@@@@@@",
"OOOOOOOOOOOOOOOOOOOOOOOOOOOOOOOOOOOOOOOOOOOOOOO   ooooo  OOOOOOO",
"OOOOOOOOOOOOOOOOOOOOOOOOOOOOOOOOOOOOOOOOOOOOOO  oooooooo   OOOOO",
"OOOOOOOOOOOOOOOOOOOOOOOOOOOOOOOOO     OOOOOOO  ooooooooooo   OOO",
"OOOOOOOOOOOOOOOOOOOOOOOOOOOOOOO   ooo   OOOO  oooooooooooooo  OO",
"OOOOOOOOOOOOOOOOOOOOOOOOOOOOOO  oo+++oo   O  oooooo++++oooooo  O",
"OOOOOOOOOOOOO....OO     OOOOOO o+++  ++oo   ooooo+++++++++oooo .",
".........O....@X.   ooo  .OOO  o+      ++ooooooo+++++++++++oo  @",
"@@@@@@@XX..@@@O@  oo+++o  @.. o++ ....   ++++++++++++++++++o  OO",
"OOOOOOO@@@@@OOO  o++  ++o  @@ o+  XX@@@@    +++++++++++++++  OOO",
"OOOOOOOOOOOOOO  oo      +o    o+ @@@@OOOOOO   ++++++++++++  OOOO",
"OOOOOOOOOOOOOO o+o OOOO ++o  oo+ OOOOOOOOOOOO   +++++++++  OOOOO",
"OOOOOOOOOOOOOO o+  OOOO  +ooo++  OOOOOOOOOOOOOO   +++++   OOOOOO",
"OOOOOOOOOOOOOO o+ OOOOOO  ++++  OOOOOOOOOOOOOOOOO       OOOOOOOO",
"OOO      OOOO  o+ OOOOOOO  ++  OOOOOOOOOOOOOOOOOOOOOOOOOOOOOOOOO",
"OO  +ooo  ... oo+ OOOOOOOO    OOOOOOOOOOOOOOOOOOOOOOOO...OO...OO",
".. ++   o  @@ o++ .OOO..............OOOOOOO...........X@@..XXX..",
"@@ +  @ +o    o+  @...@@@@@@@@@@@@@@@....@@@@@@@@@@@@@@O@@@@@@@@",
"OO   OO  +oooo++ OO@@@OOOOOOOOOOOOOOO@@@@@OOOOOOOOOOO@OOOOOOOOOO",
"OOOOOOOO  ++++   OOOOOOOOOOOOOOOOOOOOOOOOOOOOOOOOOOOOOOOOOOOOOOO",
"OOOOOOOOO      OOOOOOOOOOOOOOOOOOOOOOOOOOOOOOOOOOOOOOOOOOOOOOOOO",
"OOOOOOOOOOOOOOOOOOOOOOOOOOOOOOOOOOOOOOOOOOOOOOOOOOOOOOOOOOOOOOOO",
"OOOOOOOOOOOOOOOOOOOOOOOOOOOOOOOOOOOOOOOOOOOOOOOOOOOOOOOOOOOOOOOO",
"OOOOOOOOOOOOOOOOOOOOOOOOOOOOOOOOOOOOOOOOOOOOOOOOOOOOOOOOOOOOOOOO",
"OOOOOOOOOOOO.....OOOOO.OOOOOOOOOOOOOOOOOOOOOOOOOOOOOOOOOOOOOOOOO",
"....OOOOOOO.XXXXX.....X....OOOO..OOOOOOO...OOOOO................",
"@@@X.......@@@@@@X@@@@@@XXX....XX@.....@@@@@@@@@.X@@@@@@@@@@@@@@",
"OOO@@@@@@@@@OOOO@@@OOOO@@@@@@@@@@O@@@@@OOOOOOOO@@@OOOOOOOOOOOOOO",
"OOOOOOOOOOOOOOOOOOOOOOOOOOOOOOOOOOOOOOOOOOOOOOOOOOOOOOOOOOOOOOOO",
"OOOOOOOOOOOOOOOOOOOOOOOOOOOOOOOOOOOOOOOOOOOOOOOOOOOOOOOOOOOOOOOO",
"OOOOOOOOOOOOOOOOOOOOOOOOOOOOOOOOOOOOOOOOOOOOOOOOOOOOOOOOOOOOOOOO",
"OOOOOOOOOOOOOOOOOOOOOOOOOOOOOOOOOOOOOOOOOOOOOOOOOOOOOOOOOOOOOOOO",
"O..OOOOOOOOOOOOOOOOOOOOOOOOOOOOOOOOOOOOOOOOOOOOOOOOOOOOOOOOOOOOO",
".X@.................OOOOOOOOOOOOOOOOOOOOOOOOOOOOOOOO....OOOOOOOO",
"@@@@@@@@@@@@@@@@@XX...OOOOOOOOOOOOO.OOOOOOOOOOOOOO..XXXX......@@",
"OOOOOOOOOOOOOOOO@@@@@@.............X..OO........@@@@@@@@@@@@@@OO",
"OOOOOOOOOOOOOOOOOOOOO@@@@@@@@@@@@@@@@@@.@@@@@@@@@OOOOOOOOOOOOOOO",
"OOOOOOOOOOOOOOOOOOOOOOOOOOOOOOOOOOOOOO@@@OOOOOOOOOOOOOOOOOOOOOOO",
"OOOOOOOOOOOOOOOOOOOOOOOOOOOOOOOOOOOOOOOOOOOOOOOOOOOOOOOOOOOOOOOO",
"OOOOOOOOOOOOOOOOOOOOOOOOOOOOOOOOOOOOOOOOOOOOOOOOOOOOOOOOOOOOOOOO"
};
