/* XPM */
static char *result[] = {
/* columns rows colors chars-per-pixel */
"64 64 11 1 ",
"  c black",
". c #EB3131",
"X c #EE5858",
"o c #C8CA40",
"O c #E5E774",
"+ c #DD5DA6",
"@ c #E774B6",
"# c #EAB1B1",
"$ c #D8A3C1",
"% c #E5C0D5",
"& c white",
/* pixels */
"################################################################",
"################################################################",
"#######################              ###########################",
"####################    $$$$$$$$$$$$$    #######################",
"#######..########   $$$$$$%%%$$$$$%%$$$$    ####################",
".........####... $$$$%%%%%%%%%%%%%%%%%%$$$$   ####...###........",
"&&&&&&&&&.....X $$%%%%%%%%%%%%%%%%%%%%%%%%$$$   #.XXX...XXX&&&&&",
"########&&&&&& $$%%%%%%%                        &&&&&&&&&&&#####",
"############# $$        +++++++++++++++++++++++    #############",
"#########       +++++++++@@@@@@@@@@@@@@@@@@@@++@@@   ###########",
"#######   @@@@@@@@@@@@@@@@@@@@@@@@@@@@@@@@@@@@+++@@@@   ########",
"#####  @@@@+++++++@@@@@@@@@@@@@@@@@@@@@@@@@++++++++++@@  #######",
"##### @@++++++++++@@@@@@@@+++++++++++@@@@@@++        +@@  ######",
".... @+++        ++@@@+++++@@@@@@@@@++@@@++   .....#  +@@  ####.",
"&&&& ++   &&. $$$ ++@+@@@@@@@@@@@@@@@@++@+  $ &&&&&.&  @@@ ....X",
"### ++  ###&&& $$  +@@@@@@@@+++@@@@@@@@@@+ $$ ####&&&#  @@  &&&&",
"### +@ #######  $% ++@@@++++@@@++++@@@@@++ $ ########## @@@ ####",
"### +@ ######## $%% ++@+@@@@@@@@@@++++@++ %$ ########## @@@ ####",
"### +@ ######## $%%  +@@@@@@@@@@@@@@@@@+  %$ ##########  @@ ####",
"### +@ ######## $$%% +@@@@@@@++++@@@@@@+ %%$ ########### @@  ###",
"### +@ ########  $%% ++@@++++@@@@+++@@@+ %%$ ########### @@@ ###",
"### +@ ######... $$%  +@@@@@@@@@@@@++@@+ %%$ ########### @@@ ###",
"... +@ ......X&&  $%% +@@@@@@@++++@@@@@+ %$$ .######..## @@@ ###",
"&&& +@  XXXXX&&## $%% +@@@++++@@@+++@@++ %$ &X......XX.  @@@ ..&",
"### ++@ &&&&&&### $%% ++@+@@@@@@@@@++@+  %$ &&&&&&&&&&&  @@ &&&&",
"###  +@ #########  $%  +@@@@@@@@@@@@@@+ %%$ ##########  @@@ ####",
"#### ++   ######## $%% +@@@@++++++@@@++ %%$ ######### ++@@@ ####",
"#### ++@@  ####### $%% ++@++@@@@@++@@+ %%%$ #######  +++@@@ ####",
"#### ++@@@@  ##### $$%% +@@@@@@@@@@@++ %%%$ #####     ++@@@ ####",
"#### ++@@++++  #### $%% +@@@@@@@@@@@++ %%%$ ###   oooo ++@@ ####",
"#### +++++      .## $%% ++@@@+++++@@++ %%%$ ### oooOOo ++++ #...",
".... ++  + oooo  .. $%% ++@@++@@@++@+  %%%$ ## OOOOOOo    + .&&&",
"&&&& + o  ooOOOo && $%%% ++@@@@@@@@@+ %%%$$ .. OOOOOO  oo + &&##",
"#### + oo oOOOOO ## $$%%  ++@@@@@@@@+ %%%$ &&& OOOOOO  Oo + ####",
"####   oO OOOOOO ##  $%%% ++@@@@@@@++ %%%$ ### OOOOOO OOo + ####",
"####   oOOOOOOOOO ## $%%%  ++@@@@@@+ %%%$$ ### OOOOOOOOOo  #####",
"###### oOOOOOOOOO ## $%%%%  +++@@@++ %%%$ #### OOOOOOOOoo ######",
"###### ooOOOOOOOO ## $$%%%%  ++@@@++ %%%$ #### OOOOOOOOo  ######",
"######  ooOOOOOOO ### $%%%%%  +++++ %%%%$ #### OOOOOOOoo #######",
"#######  ooOOOOOO ### $$%%%%%      %%%%%$ ##### OooOOOo .##...##",
"........  oooooo ..##  $%%%%%%%% %%%%%%%$ #.....  ooooo &..XXX..",
"&&&&&&&&&    oo  &&... $$%%%%%%% %%%%%%$$ &&&&&&&   o  #&&&&&&&&",
"############    ###&&&  $%%%%%%% %%%%%%$   ########   ##########",
"######################  $$%%%%%% %%%%%%$ @ #####################",
"###################### @ $%%%%%% %%%%%$$ @ #####################",
"###################### @ $$%%%%% %%%%%$  @ #####################",
"###################### @  $%%%%% %%%%$$ @@ #####################",
"###################### @@ $$$%$$ $$$$$  @@ #####################",
"############.....##### @+@  $$$    $$  @@@ #####################",
"....#######.XXXXX..... @++@     @@    @@+@ #####................",
"&&&X.......&&&&&&X&&&&  @+++@@@@@@@@@@@++@ &&&&&.X&&&&&&&&&&&&&&",
"###&&&&&&&&&####&&&#### @@@@+++@@@@@@++@@  ####&&&##############",
"####################### @@@@@@++++++++@@@ ######################",
"#######################  ++@@@@@@@@@@@+++ ######################",
"######################## @@++++++++++++@@ ######################",
"######################## @@@@@@@@@@@@@@@@ ######################",
"#..##################### ++++@@@@@@@@@@@+ ######################",
".X&.................#### @@@@+++++++++++@ ##########....########",
"&&&&&&&&&&&&&&&&&XX...##  +@@@@@@@@@@@@@ #########..XXXX......&&",
"################&&&&&&... ++++++++++++++ .......&&&&&&&&&&&&&&##",
"#####################&&&& @@@@@@@@@@@@@  &&&&&&&&###############",
"#########################   +++++++++++ &#######################",
"###########################             ########################",
"################################################################"
};
