/* XPM */
static char *result[] = {
/* columns rows colors chars-per-pixel */
"64 64 8 1 ",
"  c #8A2A2A",
". c #EB3131",
"X c #EE5858",
"o c #DA6060",
"O c #EF6262",
"+ c #EE8C8C",
"@ c #EAB1B1",
"# c white",
/* pixels */
"@@@@@@@@@@@oO++++OOOOO++++++++++OOOOOOOOOOOOOO+++OOo@@@@@@@@@@@@",
"@@@@@@@@@@@oOOOOOO    OO++++++OOO           O+OOO++ooo@@@@@@@@@@",
"@@@@@@@@@@oo            OOOOOO              O+    +++ooo@@@@@@@@",
"@@@@@@@@@oo                                 O+      +++o@@@@@@@@",
"@@@@@@@..oo                                 O+         o@@@@@@@@",
"........oo                                  O++        o........",
"########o                +++                OO+        oXXX#####",
"@@@@@@@@oo               OOOO++             OO+        o###@@@@@",
"@@@@@@@@@o               OOOOOO+             O+        o@@@@@@@@",
"@@@@@@@@@oo              OO++++++            OO+       oo@@@@@@@",
"@@@@@@@@@@o             OO+    O+             O+        oo@@@@@@",
"@@@@@@@@@@o             O+     O+             OO+        oo@@@@@",
"@@@@@@@@ooo             O+     OO+             O+        oo@@@@@",
"o......oo               O+      O+                        o@@@@.",
"ooooooooo              OO+      O+                        o....X",
"OO      o             OO+       O+                        o#####",
"O      o              OO+       O+                        oo@@@@",
"O     oo            OOO+       OO                     ooooooooOo",
"+O    o         OOOOOO+        O+                    oo       OO",
"+O              +++++          O+                             ++",
"+O                             O+                             +O",
"O++                            O+                            ++O",
"O+                            OO+                            +O+",
"O+                            O+                             +O+",
"++                            O+                             +O+",
"++                            O+                              O+",
"O+                           OO+                              O+",
"O+                           O+          +OO                  O+",
"O+                           O+          ++OOO                OO",
"O+                           O+           +++OOO               O",
"O+  ++++++                   +               ++OOOOOOOOO      +O",
"O+++OOOOOO++                                   ++++OO++OOOOO  ++",
"+OOOO    OOO++                                    +++++++++OOO++",
"OO         OOO                                 +++OOO      ++OOO",
"O++                                           +OOOO          ++O",
"O+                                          ++OO               +",
"O++                                        +OOO               OO",
"+O+                                      ++OO                 +O",
"+O+                                     +OOO                  +O",
"+O+        O                           +OOO                   +O",
"+O+       +O                           OO                     +O",
"+O        +OO                                                 +O",
"OO         +O                                                 O+",
"O+         +OOOO                                              O+",
"O+          ++OO                                              O+",
"O+            +OO                                             O+",
"O+             +OO                                            +O",
"O+              ++OO                     O                    +O",
"O+                +OOO                OOOO                    +O",
"O++                ++OOOOOOO         OO++                o    +O",
"OO+                  +++++++OOOOOOOOOO+                  o    +O",
"+O+                        ++++                          o    +O",
"O++                            ++++                       o   +O",
"O+                              OOO+++                    o   +O",
"O+                                OOOO+                    o  oo",
"O+           oo                      OO+                   o oo@",
"O+         oo                         OO+                  ooo@@",
"ooo    oooo                            OO+                 o@@@@",
"##oooooo#o                              OO+        +       oo.##",
"@@@@@@@@@o                               O+       OO+       o#@@",
"@@@@@@@@oo           ++                  OO+       OO+     oo@@@",
"@@@@@@@@oo         ++OOO    OOO                    OO+     oo@@@",
"@@@@@@@@@o OOO   ++OOO    OO+++OO      OOO        ++OO+O   oo@@@",
"@@@@@@@@@oO+++OO+OO++OOOOOO++++++OOOOOO+++OOOOOOOOO++O+OOOOo@@@@"
};
